<svg width="736" height="678" viewBox="0 0 736 678" fill="none" xmlns="http://www.w3.org/2000/svg">
<path d="M368.069 186.131L368.065 186.135L365.918 183.973L333.75 151.526L368.065 116.926L368.069 116.93L368.069 125.581L368.065 125.578L342.327 151.526L368.065 177.487L368.069 177.483L368.069 186.131Z" fill="#80B3FF"/>
<path d="M368.069 203.464L365.922 201.302L357.345 192.65L361.635 188.326L368.069 194.812L368.069 203.464ZM368 108L346.618 129.921L342.337 125.606L368 99.5L368 108ZM357.348 184.002L353.061 188.329L344.481 179.674L348.771 175.353L357.348 184.002ZM344.484 171.023L340.194 175.35L316.602 151.555L329.473 138.576L332.18 141.303L332.174 141.31L333.757 142.907L325.18 151.555L344.484 171.023ZM342.331 134.258L338.05 138.576L333.76 134.255L338.053 129.927L340.19 132.083L340.185 132.089L342.331 134.258Z" fill="#2E4272"/>
<path d="M368.07 116.93L368.074 116.927L370.221 119.089L402.389 151.536L368.074 186.136L368.07 186.132L368.07 177.48L368.074 177.484L393.812 151.536L368.074 125.575L368.07 125.579L368.07 116.93Z" fill="#80B3FF"/>
<path d="M368 55L464.5 152.5L368 250L368 225L440.5 152.5L368 79L368 55Z" fill="#80B3FF"/>
<path d="M368 55L271.5 152.5L368 250L368 225L294.5 152.5L368 79L368 55Z" fill="#80B3FF"/>
<path d="M368 99.5L370.216 101.82L378.793 110.472L374.503 114.796L368 108L368 99.5ZM368.069 194.828L389.52 173.201L393.801 177.515L368.069 203.464L368.069 194.828ZM378.79 119.12L383.077 114.793L391.657 123.447L387.367 127.768L378.79 119.12ZM391.654 132.099L395.944 127.771L419.535 151.567L406.665 164.546L403.957 161.818L403.963 161.811L402.381 160.215L410.958 151.567L391.654 132.099ZM393.807 168.864L398.088 164.546L402.378 168.867L398.085 173.194L395.947 171.039L395.953 171.033L393.807 168.864Z" fill="#2E4272"/>
<path d="M368 7L374.018 13.061L398.063 37.314L386.036 49.4361L368 31.253L368 7ZM368 273.791L428.134 213.163L440.134 225.259L368 298L368 273.791ZM398.054 61.5579L410.072 49.427L434.125 73.6888L422.098 85.802L398.054 61.5579ZM434.117 97.9419L446.143 85.811L512.277 152.518L476.197 188.901L468.607 181.254L468.623 181.235L464.187 176.761L488.231 152.516L434.117 97.9419ZM440.152 201.006L452.152 188.901L464.179 201.014L452.143 213.145L446.152 207.102L446.168 207.086L440.152 201.006Z" fill="#2E4272"/>
<path d="M368.069 139.405L368.07 139.404L368.817 140.154L380.002 151.418L368.07 163.428L368.069 163.427L368.069 160.424L368.07 160.425L377.02 151.418L368.07 142.406L368.069 142.407L368.069 139.405Z" fill="#80B3FF"/>
<path d="M368.069 133.409L368.815 134.16L371.798 137.163L370.306 138.664L368.069 136.412L368.069 133.409ZM368.069 166.446L375.528 158.938L377.016 160.436L368.069 169.443L368.069 166.446ZM371.797 140.165L373.287 138.663L376.271 141.667L374.779 143.167L371.797 140.165ZM376.27 144.67L377.762 143.168L385.965 151.428L381.49 155.934L380.548 154.987L380.55 154.985L380 154.43L382.982 151.428L376.27 144.67ZM377.019 157.433L378.507 155.934L379.999 157.434L378.506 158.936L377.763 158.188L377.765 158.186L377.019 157.433Z" fill="#2E4272"/>
<path d="M368.069 163.448L368.068 163.449L367.321 162.698L356.135 151.435L368.068 139.424L368.069 139.426L368.069 142.429L368.068 142.428L359.118 151.435L368.068 160.447L368.069 160.445L368.069 163.448Z" fill="#80B3FF"/>
<path d="M368.069 169.443L367.322 168.693L364.34 165.69L365.832 164.189L368.069 166.44L368.069 169.443ZM368.069 136.407L360.61 143.915L359.121 142.417L368.069 133.409L368.069 136.407ZM364.341 162.688L362.85 164.19L359.867 161.185L361.359 159.685L364.341 162.688ZM359.868 158.182L358.376 159.684L350.173 151.424L354.648 146.919L355.59 147.866L355.588 147.868L356.138 148.422L353.155 151.424L359.868 158.182ZM359.119 145.42L357.631 146.919L356.139 145.419L357.632 143.917L358.375 144.665L358.373 144.667L359.119 145.42Z" fill="#2E4272"/>
<path d="M122.464 312.925L122.438 312.951L137.767 328.171L367.824 556.252L613.142 312.951L613.115 312.925L551.775 312.925L551.801 312.951L367.824 495.438L183.757 312.951L183.782 312.925L122.464 312.925Z" fill="#80B3FF"/>
<path d="M-0.00012207 312.925L15.3295 328.146L76.6703 388.959L107.33 358.541L61.3408 312.925L-0.00012207 312.925ZM674.771 312.925L521.43 465.016L552.023 495.368L736 312.925L674.771 312.925ZM137.988 388.938L107.307 419.333L168.67 480.169L199.307 449.751L137.988 388.938ZM230.011 480.148L199.33 510.565L368.045 677.832L460.067 586.578L440.726 567.38L440.678 567.422L429.36 556.201L368.042 617.015L230.011 480.148ZM490.682 495.412L460.067 525.764L490.703 556.181L521.385 525.741L506.101 510.588L506.059 510.629L490.682 495.412Z" fill="#2E4272"/>
</svg>
