<svg width="540" height="536" viewBox="0 0 540 536" fill="none" xmlns="http://www.w3.org/2000/svg">
<g filter="url(#filter0_d)">
<path d="M4 264L15.0807 252.988L59.4194 208.991L81.5808 230.998L48.3388 264H4ZM491.742 264L380.903 153.967L403.017 132.008L536 264H491.742ZM103.742 209.007L81.5642 187.017L125.919 143.003L148.064 165.01L103.742 209.007ZM170.258 143.019L148.081 121.013L270.032 0L336.548 66.0201L322.569 79.9087L322.534 79.8785L314.353 87.9966L270.03 43.9996L170.258 143.019ZM358.678 131.976L336.548 110.017L358.693 88.011L380.871 110.033L369.823 120.997L369.793 120.966L358.678 131.976Z" fill="white"/>
<path d="M536 264L524.919 275.012L480.581 319.009L458.419 297.002L491.661 264L536 264ZM48.2575 264L159.097 374.033L136.983 395.992L4 264L48.2575 264ZM436.258 318.993L458.436 340.983L414.081 384.997L391.936 362.99L436.258 318.993ZM369.742 384.981L391.919 406.987L269.968 528L203.452 461.98L217.431 448.091L217.466 448.121L225.647 440.003L269.97 484L369.742 384.981ZM181.322 396.024L203.452 417.983L181.307 439.989L159.129 417.967L170.177 407.003L170.207 407.034L181.322 396.024Z" fill="#2E4272"/>
<g clip-path="url(#clip0)">
<path d="M153.763 317.19L153.819 325.322C153.819 325.322 152.793 330.521 151.969 336.071C151.146 341.62 150.537 347.507 151.349 348.872C152.996 351.613 156.278 348.872 156.83 346.131C157.383 343.391 158.195 326.416 158.195 326.416L158.748 315.464L153.763 317.19Z" fill="#2D2C56"/>
<path d="M145.45 316.107L146.702 323.405C146.702 323.405 149.172 343.402 147.796 346.413C146.431 349.425 142.044 348.06 142.315 343.943C142.585 339.838 141.491 325.322 141.491 325.322L139.021 316.559L145.45 316.107Z" fill="#2D2C56"/>
<path d="M148.834 227.039L149.432 236.039L126.242 247.228C122.058 249.484 120.039 254.379 121.426 258.935L137.487 318.622L145.439 316.096L138.378 261.191C137.882 257.807 140.205 254.661 143.578 254.142L151.834 252.845L160.631 243.878L150.469 253.003C148.01 255.213 146.792 258.495 147.232 261.777L153.763 317.179L160.992 318.983L164.218 264.428C164.455 260.965 166.778 258.01 170.083 256.961L184.373 252.427C186.651 251.04 188.061 248.593 188.129 245.931L187.531 226.723L148.834 227.039Z" fill="#1B294C"/>
<path d="M189.02 247.194L185.196 172.652C185.196 172.652 169.339 171.705 164.624 171.705C162.052 171.705 157.665 172.923 154.202 174.04C150.943 175.089 148.236 174.987 146.657 178.021L120.648 227.851L136.619 229.373L141.942 223.283L139.235 219.177L148.947 196.27L147.04 237.866L189.02 247.194Z" fill="#EAD18C"/>
<path opacity="0.5" d="M148.608 187.191L131.374 218.32L136.743 224.603C136.743 224.603 138.92 225.042 140.995 224.366L141.954 223.272L139.247 219.166L148.958 196.259L148.608 187.191Z" fill="url(#paint0_linear)"/>
<path d="M169.282 184.788C174.516 184.788 178.768 180.536 178.768 175.303C178.768 174.243 178.587 173.228 178.26 172.269C173.376 172.01 167.252 171.705 164.613 171.705C163.451 171.705 161.917 171.964 160.27 172.337C159.966 173.273 159.797 174.265 159.797 175.303C159.797 180.536 164.049 184.788 169.282 184.788Z" fill="white"/>
<path d="M187.069 185.522L189.02 247.611L163.372 241.464L187.069 185.522Z" fill="url(#paint1_linear)"/>
<path d="M163.023 164.036C163.462 164.927 166.575 177.153 166.575 177.153C166.575 177.153 167.692 179.149 170.354 178.935C173.027 178.709 174.132 174.931 174.132 174.931L169.463 159.592L163.023 164.036Z" fill="#EEBCC5"/>
<path d="M179.478 156.513C179.478 164.938 170.534 174.254 162.109 174.254C153.684 174.254 148.969 164.927 148.969 156.513C148.969 148.087 155.793 141.264 164.218 141.264C172.643 141.252 179.478 148.087 179.478 156.513Z" fill="#EEBCC5"/>
<path d="M180.859 160.495C182.386 151.131 176.033 142.303 166.669 140.776C157.305 139.25 148.477 145.603 146.951 154.967C145.424 164.33 151.778 173.158 161.141 174.685C170.505 176.211 179.333 169.858 180.859 160.495Z" fill="#EEBCC5"/>
<path d="M151.755 170.476C149.736 170.476 147.492 168.761 146.736 166.652C146.341 165.536 146.42 164.453 146.961 163.675C147.435 162.998 148.225 162.626 149.172 162.626C151.191 162.626 153.435 164.34 154.191 166.449C154.586 167.566 154.507 168.649 153.966 169.416C153.492 170.104 152.702 170.476 151.755 170.476ZM149.183 163.224C148.428 163.224 147.819 163.505 147.458 164.024C147.029 164.633 146.973 165.513 147.311 166.449C147.988 168.333 149.984 169.878 151.766 169.878C152.522 169.878 153.131 169.596 153.492 169.077C153.92 168.468 153.977 167.588 153.638 166.652C152.962 164.769 150.965 163.224 149.183 163.224Z" fill="#EFF2F7"/>
<path d="M161.872 170.476C159.853 170.476 157.609 168.761 156.853 166.652C156.458 165.536 156.537 164.453 157.078 163.675C157.552 162.998 158.342 162.626 159.289 162.626C161.308 162.626 163.552 164.34 164.308 166.449C164.703 167.566 164.624 168.649 164.083 169.416C163.609 170.104 162.819 170.476 161.872 170.476ZM159.289 163.224C158.533 163.224 157.924 163.505 157.563 164.024C157.135 164.633 157.078 165.513 157.417 166.449C158.094 168.333 160.09 169.878 161.872 169.878C162.628 169.878 163.237 169.596 163.598 169.077C164.026 168.468 164.083 167.588 163.744 166.652C163.079 164.769 161.082 163.224 159.289 163.224Z" fill="#EFF2F7"/>
<path d="M153.56 167.588C153.83 168.062 153.797 168.603 153.469 168.784C153.142 168.976 152.657 168.739 152.387 168.265C152.116 167.791 152.15 167.25 152.477 167.07C152.804 166.889 153.289 167.115 153.56 167.588Z" fill="#2D2B42"/>
<path d="M161.195 167.949C161.466 168.423 161.432 168.965 161.105 169.145C160.778 169.337 160.293 169.1 160.022 168.626C159.752 168.153 159.786 167.611 160.113 167.431C160.428 167.25 160.913 167.476 161.195 167.949Z" fill="#2D2B42"/>
<path d="M167.128 240.032C166.462 239.806 160.823 237.077 156.819 237.077C152.815 237.077 147.92 241.306 147.92 241.306C147.92 241.306 147.255 243.528 149.916 243.088C152.59 242.649 149.544 244.769 149.544 244.769C149.544 244.769 149.691 244.871 152.804 245.31C155.917 245.75 168.053 245.107 168.053 245.107L167.128 240.032Z" fill="#EEBCC5"/>
<path d="M185.185 172.653L187.328 221.715L167.173 239.953L168.132 245.074L196.532 229.915C199.272 228.449 200.818 225.426 200.389 222.347L195.201 184.8C194.772 180.119 191.941 175.991 187.723 173.916L185.185 172.653Z" fill="#EAD18C"/>
<path d="M169.203 249.292H117.84V245.525H169.203C170.241 245.525 171.087 246.371 171.087 247.408C171.087 248.446 170.241 249.292 169.203 249.292Z" fill="white"/>
<path d="M155.105 249.291H105.58C103.392 249.291 101.474 247.814 100.91 245.705L92.1693 212.771C91.3572 209.703 93.6694 206.703 96.8387 206.703H140.093C142.281 206.703 144.198 208.18 144.762 210.289L155.105 249.291Z" fill="white"/>
<path d="M96.8387 206.692C93.6694 206.692 91.3572 209.692 92.1693 212.76L100.91 245.694C101.181 246.709 101.768 247.566 102.546 248.198L132.66 206.681H96.8387V206.692Z" fill="url(#paint2_linear)"/>
<path d="M125.938 230.908C126.479 233.05 125.126 234.799 122.915 234.799C120.705 234.799 118.471 233.062 117.93 230.908C117.389 228.765 118.742 227.016 120.953 227.016C123.163 227.016 125.397 228.753 125.938 230.908Z" fill="#80B3FF"/>
<path d="M163.902 140.553C155.094 140.553 147.841 147.196 146.849 155.746C149.838 157.956 153.729 158.938 157.383 158.295C161.703 157.539 165.583 154.561 167.433 150.58C167.297 152.486 167.173 154.404 167.489 156.287C167.805 158.171 168.617 160.032 170.094 161.25C170.207 159.919 170.331 158.532 171.03 157.381C171.73 156.242 173.173 155.441 174.425 155.926C175.316 156.276 175.892 157.201 176.027 158.159C176.162 159.107 175.914 160.077 175.564 160.968C175.012 162.366 174.2 163.675 173.173 164.78C175.204 165.096 177.335 165.344 179.377 165.141C180.448 162.896 181.069 160.393 181.069 157.731C181.08 148.245 173.388 140.553 163.902 140.553Z" fill="#80B3FF"/>
<path d="M178.644 160.562C178.644 163.438 176.309 165.761 173.444 165.761C170.568 165.761 168.245 163.427 168.245 160.562C168.245 157.697 170.579 155.362 173.444 155.362C176.309 155.351 178.644 157.686 178.644 160.562Z" fill="#EEBCC5"/>
<path d="M145.45 316.107L146.386 321.555L140.927 323.269L139.416 317.889L145.45 316.107Z" fill="#EEBCC5"/>
<path d="M153.808 323.269L158.319 324.149L158.613 318.397L153.763 317.19L153.808 323.269Z" fill="#EEBCC5"/>
<path d="M386.827 317.19L386.771 325.322C386.771 325.322 387.797 330.521 388.62 336.071C389.444 341.62 390.053 347.507 389.241 348.872C387.594 351.613 384.312 348.872 383.759 346.131C383.207 343.391 382.394 326.416 382.394 326.416L381.842 315.464L386.827 317.19Z" fill="#2D2C56"/>
<path d="M395.14 316.107L393.888 323.405C393.888 323.405 391.418 343.402 392.794 346.413C394.158 349.425 398.546 348.06 398.275 343.943C398.004 339.838 399.098 325.322 399.098 325.322L401.568 316.559L395.14 316.107Z" fill="#2D2C56"/>
<path d="M391.756 227.039L391.158 236.039L414.347 247.228C418.532 249.483 420.551 254.378 419.163 258.935L403.102 318.622L395.151 316.096L402.211 261.191C402.708 257.807 400.384 254.66 397.012 254.142L388.756 252.845L379.958 243.878L390.12 253.002C392.579 255.213 393.797 258.495 393.357 261.777L386.827 317.179L379.597 318.983L376.372 264.428C376.135 260.965 373.811 258.01 370.507 256.961L356.216 252.427C353.938 251.04 352.528 248.592 352.461 245.931L353.058 226.723L391.756 227.039Z" fill="#80B3FF"/>
<path d="M351.581 247.194L355.404 172.653C355.404 172.653 371.262 171.705 375.977 171.705C378.548 171.705 382.936 172.923 386.398 174.04C389.658 175.089 392.365 174.987 393.944 178.021L419.942 227.851L403.971 229.374L398.647 223.283L401.354 219.178L391.643 196.27L393.549 237.866L351.581 247.194Z" fill="#D98E9D"/>
<path opacity="0.5" d="M391.981 187.191L409.215 218.32L403.847 224.603C403.847 224.603 401.67 225.043 399.595 224.366L398.636 223.272L401.343 219.166L391.632 196.259L391.981 187.191Z" fill="url(#paint3_linear)"/>
<path d="M376.665 194.218C371.431 194.218 361.822 180.536 361.822 175.303C361.822 174.243 362.002 173.228 362.329 172.269C367.213 172.01 373.338 171.705 375.977 171.705C377.138 171.705 378.672 171.965 380.319 172.337C380.624 173.273 380.793 174.265 380.793 175.303C380.793 180.536 381.909 194.218 376.665 194.218Z" fill="white"/>
<path d="M353.532 185.522L351.581 247.611L377.218 241.465L353.532 185.522Z" fill="url(#paint4_linear)"/>
<path d="M377.579 164.036C377.139 164.927 374.026 177.153 374.026 177.153C374.026 177.153 372.909 179.149 370.247 178.935C367.574 178.709 366.469 174.931 366.469 174.931L371.138 159.592L377.579 164.036Z" fill="#EEBCC5"/>
<path d="M361.123 156.513C361.123 164.938 370.067 174.254 378.492 174.254C386.917 174.254 391.632 164.927 391.632 156.513C391.632 148.087 384.808 141.264 376.383 141.264C367.946 141.253 361.123 148.087 361.123 156.513Z" fill="#EEBCC5"/>
<path d="M379.461 174.698C388.824 173.172 395.177 164.344 393.651 154.98C392.124 145.617 383.296 139.263 373.933 140.79C364.569 142.316 358.216 151.144 359.742 160.508C361.269 169.871 370.097 176.225 379.461 174.698Z" fill="#EEBCC5"/>
<path d="M387.989 167.058C387.65 167.656 387.695 168.321 388.102 168.558C388.508 168.795 389.117 168.502 389.455 167.915C389.793 167.318 389.748 166.652 389.342 166.415C388.947 166.179 388.338 166.472 387.989 167.058Z" fill="#2D2B42"/>
<path d="M379.349 167.994C378.977 168.649 379.033 169.382 379.485 169.641C379.936 169.901 380.601 169.585 380.973 168.931C381.346 168.276 381.289 167.543 380.838 167.284C380.398 167.025 379.721 167.352 379.349 167.994Z" fill="#2D2B42"/>
<path d="M373.462 240.032C374.127 239.806 379.767 237.077 383.771 237.077C387.774 237.077 392.669 241.306 392.669 241.306C392.669 241.306 393.335 243.528 390.673 243.088C388 242.649 391.045 244.769 391.045 244.769C391.045 244.769 390.899 244.871 387.786 245.31C384.673 245.75 372.537 245.107 372.537 245.107L373.462 240.032Z" fill="#EEBCC5"/>
<path d="M355.404 172.653L353.261 221.715L373.428 239.953L372.469 245.074L344.069 229.915C341.329 228.449 339.783 225.426 340.212 222.347L345.389 184.811C345.817 180.13 348.648 176.002 352.867 173.927L355.404 172.653Z" fill="#D98E9D"/>
<path d="M371.386 249.292H422.75V245.525H371.386C370.349 245.525 369.503 246.37 369.503 247.408C369.503 248.446 370.349 249.292 371.386 249.292Z" fill="white"/>
<path d="M385.485 249.292H435.021C437.209 249.292 439.127 247.814 439.691 245.705L448.432 212.771C449.244 209.703 446.932 206.703 443.762 206.703H400.508C398.32 206.703 396.403 208.181 395.839 210.29L385.485 249.292Z" fill="white"/>
<path d="M443.763 206.692C446.932 206.692 449.244 209.692 448.432 212.76L439.691 245.694C439.42 246.709 438.834 247.566 438.055 248.198L407.941 206.681H443.763V206.692Z" fill="url(#paint5_linear)"/>
<path d="M414.652 230.907C414.11 233.05 415.464 234.799 417.675 234.799C419.885 234.799 422.118 233.062 422.66 230.907C423.201 228.764 421.848 227.016 419.637 227.016C417.426 227.016 415.193 228.753 414.652 230.907Z" fill="#80B3FF"/>
<path d="M376.687 140.553C385.496 140.553 392.748 147.196 393.741 155.746C390.752 157.956 386.861 158.938 383.207 158.295C378.887 157.539 375.007 154.561 373.157 150.58C373.293 152.486 373.417 154.404 373.101 156.287C372.785 158.171 371.973 160.032 370.495 161.25C370.383 159.919 370.259 158.532 369.559 157.381C368.86 156.242 367.416 155.441 366.164 155.926C365.273 156.276 364.698 157.201 364.563 158.159C364.427 159.107 364.676 160.077 365.025 160.968C365.578 162.366 366.39 163.675 367.416 164.78C365.386 165.096 363.254 165.344 361.213 165.141C360.141 162.896 359.521 160.393 359.521 157.731C359.51 148.245 367.202 140.553 376.687 140.553Z" fill="#80B3FF"/>
<path d="M361.946 160.562C361.946 163.438 364.281 165.761 367.146 165.761C370.022 165.761 372.345 163.427 372.345 160.562C372.345 157.697 370.01 155.362 367.146 155.362C364.281 155.351 361.946 157.686 361.946 160.562Z" fill="#EEBCC5"/>
<path d="M395.139 316.107L394.203 321.555L399.662 323.269L401.174 317.889L395.139 316.107Z" fill="#EEBCC5"/>
<path d="M386.782 323.269L382.27 324.149L381.989 318.397L386.827 317.19L386.782 323.269Z" fill="#EEBCC5"/>
<path d="M367.18 150.151C373.296 150.151 378.255 145.193 378.255 139.076C378.255 132.959 373.296 128 367.18 128C361.063 128 356.104 132.959 356.104 139.076C356.104 145.193 361.063 150.151 367.18 150.151Z" fill="#80B3FF"/>
<path d="M263.618 143.046L257.527 150.524L254.482 156.896L251.685 164.904C251.685 164.904 246.745 169.506 247.016 169.573C247.286 169.641 246.734 175.179 247.286 176.014C247.839 176.848 253.399 183.491 253.399 183.491C253.399 183.491 258.779 186.999 260.922 187.462C263.065 187.924 273.87 192.627 273.87 192.627L280.514 186.255L278.021 182.927C278.021 182.927 284.946 178.777 285.781 178.224C286.615 177.672 289.931 174.344 289.931 174.344C289.931 174.344 289.796 171.446 289.311 169.573C288.826 167.701 285.499 158.565 285.499 158.565C285.499 158.565 281.066 152.193 280.514 151.088C279.961 149.982 277.468 146.384 277.468 146.384L263.618 143.046Z" fill="#1B294C"/>
<path d="M290.462 231.009L248.008 231.336L247.681 188.161C247.659 185.612 249.711 183.525 252.26 183.514L285.488 183.266C288.037 183.243 290.123 185.296 290.135 187.845L290.462 231.009Z" fill="#80B3FF"/>
<path d="M260.866 183.492C260.866 183.492 264.069 187.191 264.069 194.94C264.069 202.688 264.329 216.956 264.329 216.956L273.859 217.001V194.567C273.859 194.567 273.047 186.875 279.149 181.055L268.772 181.315L260.866 183.492Z" fill="#1B294C"/>
<path d="M268.592 192.503C265.738 192.526 263.404 190.225 263.381 187.371L263.257 171.66C263.257 171.277 263.562 170.961 263.945 170.961L272.889 170.893C273.273 170.893 273.588 171.198 273.588 171.581L273.713 187.293C273.735 190.146 271.445 192.481 268.592 192.503Z" fill="#EEBCC5"/>
<path d="M286.559 168.04C286.559 167.859 286.57 167.69 286.57 167.51C286.57 165.953 286.379 164.442 286.006 162.987V160.979C286.006 151.122 277.942 143.068 268.096 143.068C258.238 143.068 250.185 151.133 250.185 160.979V168.028H286.559V168.04Z" fill="#9B5342"/>
<path d="M284.63 163.055V161.329C284.63 152.238 277.198 144.806 268.107 144.806C259.016 144.806 251.584 152.238 251.584 161.329V168.096C251.584 168.547 251.64 168.987 251.73 169.416C252.813 177.638 259.84 183.999 268.366 183.999C277.638 183.999 285.149 176.488 285.149 167.216C285.161 165.773 284.98 164.385 284.63 163.055Z" fill="#EEBCC5"/>
<path d="M263.043 170.171C263.043 170.871 262.479 171.446 261.768 171.446C261.058 171.446 260.494 170.882 260.494 170.171C260.494 169.472 261.058 168.897 261.768 168.897C262.479 168.897 263.043 169.472 263.043 170.171Z" fill="#1B294C"/>
<path d="M275.1 170.171C275.1 170.871 274.536 171.446 273.825 171.446C273.126 171.446 272.551 170.882 272.551 170.171C272.551 169.472 273.115 168.897 273.825 168.897C274.536 168.908 275.1 169.472 275.1 170.171Z" fill="#1B294C"/>
<path d="M256.354 169.574C256.354 172.156 254.268 174.243 251.685 174.243C249.102 174.243 247.016 172.156 247.016 169.574C247.016 166.991 249.102 164.904 251.685 164.904C254.257 164.904 256.354 166.991 256.354 169.574Z" fill="#EEBCC5"/>
<path d="M289.311 169.574C289.311 172.156 287.224 174.243 284.642 174.243C282.059 174.243 279.972 172.156 279.972 169.574C279.972 166.991 282.059 164.904 284.642 164.904C287.213 164.904 289.311 166.991 289.311 169.574Z" fill="#EEBCC5"/>
<path d="M269.381 250.172L248.572 259.939L252.429 323.405H244.974L229.894 258.326C229.229 255.45 230.481 252.473 232.996 250.939L252.689 238.87L269.381 250.172Z" fill="#BCBACE"/>
<path d="M251.572 166.506C249.993 166.641 248.764 167.961 248.764 169.574C248.764 171.187 250.005 172.506 251.572 172.642V166.506Z" fill="#D98E9D"/>
<path d="M284.314 166.506C285.893 166.641 287.123 167.961 287.123 169.574C287.123 171.187 285.882 172.506 284.314 172.642V166.506Z" fill="#D98E9D"/>
<path d="M273.837 196.462H264.238V247.612H273.837V196.462Z" fill="#1B294C"/>
<path d="M279.724 163.055C280.164 164.476 280.818 166.1 282.251 166.495C283.378 166.81 284.551 166.201 285.521 165.536C286.052 165.164 286.604 164.712 286.694 164.07C286.773 163.54 286.514 163.021 286.255 162.547C285.262 160.709 284.247 158.859 282.86 157.302C281.63 155.915 279.408 153.671 278.1 156.039C277.198 157.675 279.217 161.442 279.724 163.055Z" fill="#1B294C"/>
<path d="M281.45 152.464C277.795 149.745 273.284 148.133 268.411 148.133L268.603 145.177C263.753 145.177 259.061 149.734 255.418 152.43C258.599 156.05 263.257 159.456 268.445 159.456C273.634 159.456 278.28 156.062 281.45 152.464Z" fill="#1B294C"/>
<path d="M224.503 222.505C223.883 221.58 223.691 220.43 223.962 219.347C226.353 209.794 243.429 187.315 244.185 186.368C245.313 184.947 251.155 183.672 251.155 183.672L251.832 199.101L236.402 217.249C235.387 218.445 235.184 220.125 235.872 221.524L248.053 246.303L241.624 248.096L224.503 222.505Z" fill="#80B3FF"/>
<path d="M280.175 238.859L299.868 250.928C302.383 252.473 303.635 255.45 302.97 258.315L287.89 323.394H280.435L284.292 259.928L263.483 250.161L280.175 238.859Z" fill="#BCBACE"/>
<path d="M310.887 221.997C311.384 221.129 311.575 220.114 311.384 219.144C309.511 209.805 294.229 187.326 293.462 186.379C292.334 184.958 286.491 183.683 286.491 183.683L285.815 199.113L299.078 216.832C299.969 218.016 300.172 219.584 299.631 220.96L289.582 246.314L296.011 248.108L310.887 221.997Z" fill="#80B3FF"/>
<path d="M256.659 163.055C256.219 164.476 255.565 166.1 254.132 166.495C253.005 166.81 251.832 166.201 250.862 165.536C250.332 165.164 249.779 164.712 249.689 164.07C249.61 163.54 249.869 163.021 250.128 162.547C251.121 160.709 252.136 158.859 253.523 157.302C254.753 155.915 256.975 153.671 258.283 156.039C259.174 157.675 257.155 161.442 256.659 163.055Z" fill="#1B294C"/>
<path d="M250.975 246.54C250.975 249.506 248.561 251.92 245.595 251.92C242.628 251.92 240.215 249.506 240.215 246.54C240.215 243.574 242.628 241.16 245.595 241.16C248.561 241.16 250.975 243.574 250.975 246.54Z" fill="#EEBCC5"/>
<path d="M283.04 148.031C280.841 142.256 268.502 140.305 268.344 140.283C268.186 140.305 255.847 142.256 253.648 148.031C251.437 153.851 244.805 170.194 245.087 174.615C245.369 179.048 253.4 183.48 253.4 183.48H260.877C260.877 183.48 249.802 176.002 248.696 172.675C247.591 169.348 251.742 165.75 252.824 164.893C257.482 156.975 261.983 152.091 264.926 149.396C266.866 147.614 269.844 147.614 271.784 149.396C274.728 152.091 279.228 156.975 283.886 164.893C284.969 165.75 289.119 169.359 288.014 172.675C286.909 176.002 276.983 183.424 276.983 183.424L283.311 183.48C283.311 183.48 291.341 179.048 291.623 174.615C291.883 170.194 285.251 153.851 283.04 148.031Z" fill="#80B3FF"/>
<path d="M297.894 247.521C298.075 244.555 295.808 242.006 292.853 241.825C289.886 241.645 287.337 243.912 287.157 246.867C286.976 249.833 289.243 252.382 292.198 252.563C295.165 252.743 297.714 250.488 297.894 247.521Z" fill="#EEBCC5"/>
<path d="M289.976 223.182V246.303C289.976 246.303 276.916 251.187 275.055 250.927C273.194 250.668 273.194 230.366 273.194 230.366L275.596 224.197L289.976 223.182Z" fill="#80B3FF"/>
<path d="M248.053 223.182V246.303C248.053 246.303 261.114 251.187 262.975 250.927C264.836 250.668 264.836 230.366 264.836 230.366L262.434 224.197L248.053 223.182Z" fill="#80B3FF"/>
<path d="M252.418 323.405L253.445 332.913C253.445 332.913 243.812 348.861 240.012 349.244C236.211 349.628 237.846 342.906 240.012 339.827C242.177 336.748 246.418 330.307 246.418 330.307L248.042 323.405H252.418Z" fill="#2D2C56"/>
<path d="M281.777 323.405L280.75 332.913C280.75 332.913 290.383 348.861 294.183 349.244C297.984 349.628 296.349 342.906 294.183 339.827C292.018 336.748 287.777 330.307 287.777 330.307L286.153 323.405H281.777Z" fill="#2D2C56"/>
<path d="M244.963 252.879H293.8C295.65 252.879 297.263 251.604 297.68 249.8L301.808 232.148C302.428 228.731 299.778 225.584 296.304 225.618L240.373 226.047C236.899 226.069 234.305 229.25 234.97 232.667L241.218 250.239C241.771 251.819 243.282 252.879 244.963 252.879Z" fill="white"/>
<path d="M274.84 225.776L240.373 226.035C236.899 226.058 234.305 229.239 234.97 232.656L241.218 250.228C241.782 251.819 243.283 252.879 244.974 252.879H253.738L274.84 225.776Z" fill="url(#paint6_linear)"/>
<path d="M267.803 246.078C270.518 246.078 272.72 244.042 272.72 241.532C272.72 239.022 270.518 236.987 267.803 236.987C265.087 236.987 262.885 239.022 262.885 241.532C262.885 244.042 265.087 246.078 267.803 246.078Z" fill="#80B3FF"/>
</g>
</g>
<defs>
<filter id="filter0_d" x="0" y="0" width="540" height="536" filterUnits="userSpaceOnUse" color-interpolation-filters="sRGB">
<feFlood flood-opacity="0" result="BackgroundImageFix"/>
<feColorMatrix in="SourceAlpha" type="matrix" values="0 0 0 0 0 0 0 0 0 0 0 0 0 0 0 0 0 0 127 0"/>
<feOffset dy="4"/>
<feGaussianBlur stdDeviation="2"/>
<feColorMatrix type="matrix" values="0 0 0 0 0.105882 0 0 0 0 0.160784 0 0 0 0 0.298039 0 0 0 0.2 0"/>
<feBlend mode="normal" in2="BackgroundImageFix" result="effect1_dropShadow"/>
<feBlend mode="normal" in="SourceGraphic" in2="effect1_dropShadow" result="shape"/>
</filter>
<linearGradient id="paint0_linear" x1="131.375" y1="205.968" x2="148.953" y2="205.968" gradientUnits="userSpaceOnUse">
<stop stop-color="#EAD18C" stop-opacity="0"/>
<stop offset="1" stop-color="#524F63" stop-opacity="0.7"/>
</linearGradient>
<linearGradient id="paint1_linear" x1="136.909" y1="236.793" x2="233.398" y2="198.628" gradientUnits="userSpaceOnUse">
<stop stop-color="#EAD18C" stop-opacity="0"/>
<stop offset="1" stop-color="#524F63" stop-opacity="0.7"/>
</linearGradient>
<linearGradient id="paint2_linear" x1="132.566" y1="227.798" x2="46.993" y2="225.777" gradientUnits="userSpaceOnUse">
<stop stop-color="#484EC2" stop-opacity="0"/>
<stop offset="1" stop-color="#444BCC" stop-opacity="0.5"/>
</linearGradient>
<linearGradient id="paint3_linear" x1="409.216" y1="205.968" x2="391.638" y2="205.968" gradientUnits="userSpaceOnUse">
<stop stop-color="#D37897" stop-opacity="0"/>
<stop offset="0.8988" stop-color="#BC547C"/>
</linearGradient>
<linearGradient id="paint4_linear" x1="403.681" y1="236.793" x2="307.193" y2="198.628" gradientUnits="userSpaceOnUse">
<stop stop-color="#D37897" stop-opacity="0"/>
<stop offset="0.8988" stop-color="#BC547C"/>
</linearGradient>
<linearGradient id="paint5_linear" x1="408.025" y1="227.798" x2="493.598" y2="225.776" gradientUnits="userSpaceOnUse">
<stop stop-color="#80B3FF" stop-opacity="0"/>
<stop offset="1" stop-color="#80B3FF" stop-opacity="0.5"/>
</linearGradient>
<linearGradient id="paint6_linear" x1="260.466" y1="239.139" x2="209.89" y2="240.334" gradientUnits="userSpaceOnUse">
<stop stop-color="#484EC2" stop-opacity="0"/>
<stop offset="1" stop-color="#444BCC" stop-opacity="0.5"/>
</linearGradient>
<clipPath id="clip0">
<rect width="356.59" height="222" fill="white" transform="translate(92 128)"/>
</clipPath>
</defs>
</svg>
